# xmcd CD database file
#
# Track frame offsets:
#	150
#	19400
#	34130
#	49972
#	66765
#	89365
#	104910
#	122550
#	144037
#	165475
#
# Disc length: 2406 seconds
#
# Revision: 0
# Processed by: cddbd v1.5PL3 Copyright (c) Steve Scherf et al.
# Submitted via: CDex 1.50
#
DISCID=8709640a
DTITLE=細川直美 - 合格祈願
DYEAR=1990
DGENRE=JPop
TTITLE0=ナヴィの十五夜物語
TTITLE1=乙女の涙は全国区
TTITLE2=バイバイBOYにしてあげる
TTITLE3=まっ赤なロンリネス
TTITLE4=Love Songがいっぱい！
TTITLE5=ダブルブッキングなんか怖くない
TTITLE6=15(イチゴ)時代
TTITLE7=元町小町にハンカチを…
TTITLE8=Beat Boyにご用心
TTITLE9=恋は1・2・サンバ
EXTD=YEAR: 1990/02/25
EXTT0=
EXTT1=
EXTT2=
EXTT3=
EXTT4=
EXTT5=
EXTT6=
EXTT7=
EXTT8=
EXTT9=
PLAYORDER=
